<svg id="Layer_1" data-name="Layer 1" xmlns="http://www.w3.org/2000/svg" viewBox="0 0 424 81"><defs><style>.cls-1{fill:#3385d9;}</style></defs><title>emptyStars</title><path class="cls-1" d="M126,4.69l11.38,23.06.47.94,1,.15,25.45,3.7-18.42,18-.75.74.18,1,4.34,25.35-22.76-12-.93-.49-.93.49-22.76,12,4.34-25.35.18-1-.75-.74-18.42-18,25.45-3.7,1-.15.47-.94L126,4.69m0-4.52-13.18,26.7L83.36,31.15l21.32,20.78-5,29.34L126,67.42l26.35,13.85-5-29.34,21.32-20.78-29.46-4.28L126,.17Z"/><path class="cls-1" d="M211,4.69l11.38,23.06.47.94,1,.15,25.45,3.7-18.42,18-.75.74.18,1,4.34,25.35-22.76-12-.93-.49-.93.49-22.76,12,4.34-25.35.18-1-.75-.74-18.42-18,25.45-3.7,1-.15.47-.94L211,4.69m0-4.52-13.18,26.7-29.46,4.28,21.32,20.78-5,29.34L211,67.42l26.35,13.85-5-29.34,21.32-20.78-29.46-4.28L211,.17Z"/><path class="cls-1" d="M296,4.69l11.38,23.06.47.94,1,.15,25.45,3.7-18.42,18-.75.74.18,1,4.34,25.35-22.76-12-.93-.49-.93.49-22.76,12,4.34-25.35.18-1-.75-.74-18.42-18,25.45-3.7,1-.15.47-.94L296,4.69m0-4.52-13.18,26.7-29.46,4.28,21.32,20.78-5,29.34L296,67.42l26.35,13.85-5-29.34,21.32-20.78-29.46-4.28L296,.17Z"/><path class="cls-1" d="M381,4.69l11.38,23.06.47.94,1,.15,25.45,3.7-18.42,18-.75.74.18,1,4.34,25.35-22.76-12-.93-.49-.93.49-22.76,12,4.34-25.35.18-1-.75-.74-18.42-18,25.45-3.7,1-.15.47-.94L381,4.69m0-4.52-13.18,26.7-29.46,4.28,21.32,20.78-5,29.34L381,67.42l26.35,13.85-5-29.34,21.32-20.78-29.46-4.28L381,.17Z"/><path class="cls-1" d="M41,4.69,52.38,27.75l.47.94,1,.15,25.45,3.7-18.42,18-.75.74.18,1,4.34,25.35-22.76-12L41,65.16l-.93.49-22.76,12,4.34-25.35.18-1-.75-.74-18.42-18,25.45-3.7,1-.15.47-.94L41,4.69M41,.17,27.82,26.87-1.64,31.15,19.68,51.93l-5,29.34L41,67.42,67.35,81.27l-5-29.34L83.64,31.15,54.18,26.87,41,.17Z"/></svg>