<svg id="Layer_1" data-name="Layer 1" xmlns="http://www.w3.org/2000/svg" viewBox="0 0 426 81"><defs><style>.cls-1{fill:#ffff12;}.cls-2{fill:#3385d9;}</style></defs><title>Artboard 2</title><polygon class="cls-1" points="128 66.29 102.98 79.44 107.76 51.58 87.51 31.84 115.49 27.78 128 2.43 140.51 27.78 168.49 31.84 148.24 51.58 153.02 79.44 128 66.29"/><path class="cls-2" d="M128,4.69l11.38,23.06.47.94,1,.15,25.45,3.7-18.42,18-.75.74.18,1,4.34,25.35-22.76-12-.93-.49-.93.49-22.76,12,4.34-25.35.18-1-.75-.74-18.42-18,25.45-3.7,1-.15.47-.94L128,4.69m0-4.52-13.18,26.7L85.36,31.15l21.32,20.78-5,29.34L128,67.42l26.35,13.85-5-29.34,21.32-20.78-29.46-4.28L128,.17Z"/><polygon class="cls-1" points="213 66.29 187.98 79.44 192.76 51.58 172.51 31.84 200.49 27.78 213 2.43 225.51 27.78 253.49 31.84 233.24 51.58 238.02 79.44 213 66.29"/><path class="cls-2" d="M213,4.69l11.38,23.06.47.94,1,.15,25.45,3.7-18.42,18-.75.74.18,1,4.34,25.35-22.76-12-.93-.49-.93.49-22.76,12,4.34-25.35.18-1-.75-.74-18.42-18,25.45-3.7,1-.15.47-.94L213,4.69m0-4.52-13.18,26.7-29.46,4.28,21.32,20.78-5,29.34L213,67.42l26.35,13.85-5-29.34,21.32-20.78-29.46-4.28L213,.17Z"/><polygon class="cls-1" points="298 66.29 272.98 79.44 277.76 51.58 257.51 31.84 285.49 27.78 298 2.43 310.51 27.78 338.49 31.84 318.24 51.58 323.02 79.44 298 66.29"/><path class="cls-2" d="M298,4.69l11.38,23.06.47.94,1,.15,25.45,3.7-18.42,18-.75.74.18,1,4.34,25.35-22.76-12-.93-.49-.93.49-22.76,12,4.34-25.35.18-1-.75-.74-18.42-18,25.45-3.7,1-.15.47-.94L298,4.69m0-4.52-13.18,26.7-29.46,4.28,21.32,20.78-5,29.34L298,67.42l26.35,13.85-5-29.34,21.32-20.78-29.46-4.28L298,.17Z"/><polygon class="cls-1" points="383 66.29 357.98 79.44 362.76 51.58 342.51 31.84 370.49 27.78 383 2.43 395.51 27.78 423.49 31.84 403.24 51.58 408.02 79.44 383 66.29"/><path class="cls-2" d="M383,4.69l11.38,23.06.47.94,1,.15,25.45,3.7-18.42,18-.75.74.18,1,4.34,25.35-22.76-12-.93-.49-.93.49-22.76,12,4.34-25.35.18-1-.75-.74-18.42-18,25.45-3.7,1-.15.47-.94L383,4.69m0-4.52-13.18,26.7-29.46,4.28,21.32,20.78-5,29.34L383,67.42l26.35,13.85-5-29.34,21.32-20.78-29.46-4.28L383,.17Z"/><polygon class="cls-1" points="43 66.29 17.98 79.44 22.76 51.58 2.51 31.84 30.49 27.78 43 2.43 55.51 27.78 83.49 31.84 63.24 51.58 68.02 79.44 43 66.29"/><path class="cls-2" d="M43,4.69,54.38,27.75l.47.94,1,.15,25.45,3.7-18.42,18-.75.74.18,1,4.34,25.35-22.76-12L43,65.16l-.93.49-22.76,12,4.34-25.35.18-1-.75-.74-18.42-18,25.45-3.7,1-.15.47-.94L43,4.69M43,.17,29.82,26.87.36,31.15,21.68,51.93l-5,29.34L43,67.42,69.35,81.27l-5-29.34L85.64,31.15,56.18,26.87,43,.17Z"/></svg>