<svg id="Layer_1" data-name="Layer 1" xmlns="http://www.w3.org/2000/svg" viewBox="0 0 85 81"><defs><style>.cls-1{fill:#ffff12;}.cls-2{fill:#3385d9;}</style></defs><title>fullStar</title><polygon class="cls-1" points="43 66.29 17.98 79.44 22.76 51.58 2.51 31.84 30.49 27.78 43 2.43 55.51 27.78 83.49 31.84 63.24 51.58 68.02 79.44 43 66.29"/><path class="cls-2" d="M43,4.69,54.38,27.75l.47.94,1,.15,25.45,3.7-18.42,18-.75.74.18,1,4.34,25.35-22.76-12L43,65.16l-.93.49-22.76,12,4.34-25.35.18-1-.75-.74-18.42-18,25.45-3.7,1-.15.47-.94L43,4.69M43,.17,29.82,26.87.36,31.15,21.68,51.93l-5,29.34L43,67.42,69.35,81.27l-5-29.34L85.64,31.15,56.18,26.87,43,.17Z"/></svg>